<svg xmlns="http://www.w3.org/2000/svg" width="48" height="48" viewBox="0 0 48 48">
    <g fill="none" fill-rule="evenodd">
        <path fill="#D8D8D8" fill-opacity="0" d="M0 0h48v48H0z"/>
        <circle cx="9.5" cy="35.5" r="1" stroke="#666" stroke-linejoin="round"/>
        <circle cx="12.5" cy="35.5" r="1" stroke="#666" stroke-linejoin="round"/>
        <path stroke="#666" stroke-linejoin="round" d="M8.385 29.5h31.23a2.945 2.945 0 0 1 2.885 3v6a2.945 2.945 0 0 1-2.885 3H8.385a2.945 2.945 0 0 1-2.885-3v-6a2.945 2.945 0 0 1 2.885-3z"/>
        <path stroke="#E60000" stroke-linecap="round" stroke-width="1.012" d="M24.485 10.32c4.423-4.422 11.592-4.422 16.015 0M27.65 12.975a6.877 6.877 0 0 1 9.727 0"/>
        <circle cx="32.525" cy="15.957" r="1" stroke="#666" stroke-linejoin="round"/>
        <path stroke="#666" stroke-linejoin="round" d="M32.508 17v12"/>
    </g>
</svg>
