<svg xmlns="http://www.w3.org/2000/svg" width="50" height="50" viewBox="0 0 50 50">
    <g fill="none" fill-rule="evenodd" stroke="#999">
        <path fill="#FFF" fill-rule="nonzero" stroke-width="1.146" d="M5.732.573a5.159 5.159 0 0 0-5.159 5.16v38.535c0 2.85 2.31 5.159 5.16 5.159h38.535c2.85 0 5.159-2.31 5.159-5.16V5.733c0-2.85-2.31-5.159-5.16-5.159H5.733z"/>
        <g stroke-linecap="round" stroke-linejoin="round">
            <path d="M22.125 36.4h4.75"/>
            <path stroke-width="1.5" d="M18.167 40.6c-1.53 0-2.771-1.254-2.771-2.8V12.2c0-1.546 1.24-2.8 2.77-2.8h12.667c1.53 0 2.771 1.254 2.771 2.8v25.6c0 1.546-1.24 2.8-2.77 2.8H18.166z"/>
        </g>
    </g>
</svg>
