<svg xmlns="http://www.w3.org/2000/svg" width="38" height="38" viewBox="0 0 38 38">
    <g fill="none" fill-rule="evenodd">
        <rect width="37.15" height="37.15" x=".425" y=".425" stroke="#333" stroke-width=".85" opacity=".2" rx="4.25"/>
        <path fill="#333" fill-rule="nonzero" d="M17.23 29.962c-1.205 0-2.182-.95-2.182-2.125 0-1.173.977-2.125 2.181-2.125 1.205 0 2.181.952 2.181 2.125 0 1.174-.976 2.125-2.18 2.125zm0-1.062c.602 0 1.09-.476 1.09-1.063 0-.586-.488-1.062-1.09-1.062-.603 0-1.091.476-1.091 1.063 0 .586.488 1.062 1.09 1.062zM23.772 29.962c-1.204 0-2.18-.95-2.18-2.125 0-1.173.976-2.125 2.18-2.125 1.205 0 2.181.952 2.181 2.125 0 1.174-.976 2.125-2.181 2.125zm0-1.062c.602 0 1.09-.476 1.09-1.063 0-.586-.488-1.062-1.09-1.062-.602 0-1.09.476-1.09 1.063 0 .586.488 1.062 1.09 1.062zM11.11 11.9H7.96a.538.538 0 0 1-.545-.531c0-.294.244-.531.545-.531h3.544c.236 0 .445.147.518.364l.595 1.76H28.68c.37 0 .632.35.52.693l-3.136 9.563a.544.544 0 0 1-.519.37H15.457a.544.544 0 0 1-.518-.365l-3.226-9.541a.518.518 0 0 1-.015-.044L11.11 11.9zm4.742 10.625h9.294l2.787-8.5H12.977l2.875 8.5z"/>
        <path d="M5.234 7.65h26.171v25.5H5.235z"/>
    </g>
</svg>
