<svg xmlns="http://www.w3.org/2000/svg" width="96" height="96" viewBox="0 0 96 96">
    <g fill="none" fill-rule="evenodd">
        <path d="M95.75 0v95.75H0V0z"/>
        <path fill="#EBEBEB" fill-rule="nonzero" d="M74.335 55.835h-40.46l-10-36H82.11a4 4 0 0 1 3.855 5.07l-7.78 28a4 4 0 0 1-3.85 2.93z"/>
        <path fill="#000" fill-rule="nonzero" d="M45.568 23.917a1.997 1.997 0 0 1 2.24 1.72l3.12 23.76a1.997 1.997 0 1 1-3.96.52l-3.12-23.76a1.997 1.997 0 0 1 1.72-2.24zM34.457 24.712a2 2 0 0 1 2.432 1.444l5.924 23.258a2 2 0 1 1-3.877.987l-5.923-23.258a2 2 0 0 1 1.444-2.431zM63.086 49.894l3.12-23.76a1.997 1.997 0 1 1 3.96.52l-3.12 23.76a1.997 1.997 0 1 1-3.96-.52zM71.014 49.417l5.924-23.257a2 2 0 1 1 3.876.987l-5.923 23.257a2 2 0 1 1-3.877-.987z" opacity=".06"/>
        <rect width="4" height="28" x="54.875" y="23.905" fill="#000" fill-rule="nonzero" opacity=".06" rx="2"/>
        <path fill="#000" fill-rule="nonzero" d="M85.965 23.905l-7.78 28a4 4 0 0 1-3.855 2.93H33.875l-9.72-35h-.28l10 36h40.46a4 4 0 0 0 3.855-2.93l7.78-28a4 4 0 0 0 .11-1.57 4.06 4.06 0 0 1-.115.57z" opacity=".06"/>
        <path fill="#000" fill-rule="nonzero" d="M50.875 49.665l-3.06-23.79a2 2 0 0 0-3.97.5l.04.315a2 2 0 0 1 3.93.18l3 23.5c.062-.23.083-.468.06-.705zM42.81 49.415l-5.935-23.26a2.001 2.001 0 1 0-3.875 1v.03a2 2 0 0 1 3.87 0l5.935 23.19a1.97 1.97 0 0 0 .005-.96zM68.24 24.125a2 2 0 0 0-2.235 1.75L62.97 49.68c-.027.229-.013.46.04.685l3-23.5a2 2 0 0 1 3.93-.18l.04-.315a2 2 0 0 0-1.74-2.245zM79.375 25.71a2 2 0 0 1 1.44 1.46v-.03a2.001 2.001 0 1 0-3.875-1l-5.93 23.275a1.97 1.97 0 0 0 0 .97l5.915-23.23a2 2 0 0 1 2.45-1.445zM56.875 23.905a2 2 0 0 0-2 2v1a2 2 0 1 1 4 0v-1a2 2 0 0 0-2-2z" opacity=".06"/>
        <path fill="#EBEBEB" fill-rule="nonzero" d="M73.915 63.835H38.65l-14-49.055a4 4 0 0 0-3.85-2.905H9.93a2.06 2.06 0 0 0-2.055 1.805 2 2 0 0 0 2 2.195H20.8l13.86 48.54-2.285 8.46 3.845 1.11 1.655-6.15H73.91a2 2 0 1 0 0-4h.005z"/>
        <path fill="#000" fill-rule="nonzero" d="M73.915 63.835H38.65l-14-49.055a4 4 0 0 0-3.85-2.905H9.93a2.06 2.06 0 0 0-2.055 1.805 2 2 0 0 0 2 2.195H20.8l13.86 48.54-2.285 8.46 3.845 1.11 1.655-6.15H73.91a2 2 0 1 0 0-4h.005z" opacity=".06"/>
        <path fill="#E60000" fill-rule="nonzero" d="M9.93 11.875a2.06 2.06 0 0 0-2.055 1.805 2 2 0 0 0 2 2.195H20.71v-4H9.93z"/>
        <path fill="#000" fill-rule="nonzero" d="M20.8 14.875H9.845a2 2 0 0 1-1.93-1.5 1.885 1.885 0 0 0-.06.315 2 2 0 0 0 2 2.195H20.8L34.52 63.94l.14-.5L20.8 14.875zM73.915 66.835h-36.04l-1.65 6.145-3.595-1.04-.255.935 3.845 1.11 1.655-6.15H73.91a2 2 0 0 0 1.93-2.5 2 2 0 0 1-1.925 1.5z" opacity=".06"/>
        <path fill="#000" fill-rule="nonzero" d="M7.915 13.375a1.885 1.885 0 0 0-.06.315 2 2 0 0 0 2 2.195H20.71v-1.01H9.845a2 2 0 0 1-1.93-1.5z" opacity=".12"/>
        <circle cx="69.9" cy="71.895" r="4" fill="#4A4D4E" fill-rule="nonzero"/>
        <circle cx="33.985" cy="71.895" r="4" fill="#4A4D4E" fill-rule="nonzero"/>
        <path fill="#000" fill-rule="nonzero" d="M69.9 74.875a4 4 0 0 1-3.965-3.5 4 4 0 1 0 7.94 0 4 4 0 0 1-3.975 3.5zM33.985 74.875a4 4 0 0 1-3.965-3.5 4 4 0 1 0 7.93 0 4 4 0 0 1-3.965 3.5z" opacity=".06"/>
    </g>
</svg>
