<svg xmlns="http://www.w3.org/2000/svg" width="38" height="38" viewBox="0 0 38 38">
    <g fill="none" fill-rule="evenodd">
        <path fill-rule="nonzero" stroke="#00B0AC" stroke-width="1.031" d="M5.157.516A4.641 4.641 0 0 0 .516 5.157v27.686a4.641 4.641 0 0 0 4.641 4.641h27.686a4.641 4.641 0 0 0 4.641-4.641V5.157A4.641 4.641 0 0 0 32.843.516H5.157z"/>
        <path fill="#D8D8D8" fill-opacity="0" d="M7 7h24v24H7z"/>
        <path stroke="#00B0AC" stroke-linecap="round" stroke-linejoin="round" d="M9.5 24.03l5.029-8.383 6.147 6.147 2.235-2.235 5.589 5.587"/>
        <path stroke="#00B0AC" stroke-linecap="round" d="M25.105 12.895a1.563 1.563 0 1 1-2.21 2.21 1.563 1.563 0 0 1 2.21-2.21"/>
        <path stroke="#00B0AC" stroke-linecap="round" stroke-linejoin="round" d="M12 28.5A2.5 2.5 0 0 1 9.5 26V12A2.5 2.5 0 0 1 12 9.5h14a2.5 2.5 0 0 1 2.5 2.5v14a2.5 2.5 0 0 1-2.5 2.5H12z"/>
    </g>
</svg>
