<svg xmlns="http://www.w3.org/2000/svg" width="38" height="38" viewBox="0 0 38 38">
    <g fill="none" fill-rule="nonzero">
        <rect width="37.15" height="37.15" x=".425" y=".425" stroke="#333" stroke-width=".85" opacity=".2" rx="4.25"/>
        <g fill="#333">
            <path d="M17.245 27.354a.478.478 0 0 1-.472-.484c0-.267.211-.483.472-.483h2.83c.26 0 .471.216.471.483a.478.478 0 0 1-.471.484h-2.83z"/>
            <path d="M14.887 10.917a.955.955 0 0 0-.944.967v15.47c0 .534.423.967.944.967h7.546a.955.955 0 0 0 .943-.967v-15.47a.955.955 0 0 0-.943-.967h-7.546zm0-.967h7.546c1.042 0 1.887.866 1.887 1.934v15.47c0 1.068-.845 1.934-1.887 1.934h-7.546c-1.042 0-1.887-.866-1.887-1.934v-15.47c0-1.068.845-1.934 1.887-1.934z"/>
            <path stroke="#FFF" d="M14.34 9.222l.169-.084-.139-.29-.11-.039-.05.14.13.273zm9.85 20.698l.138.291.112.039.048-.14-.13-.273-.168.083zM13.184 8.682l1.622-.81 10.708 22.504-1.621.81L13.184 8.683z"/>
        </g>
    </g>
</svg>
