<svg xmlns="http://www.w3.org/2000/svg" width="96" height="96" viewBox="0 0 96 96">
    <defs>
        <linearGradient id="a" x1="26.824%" x2="73.176%" y1="10.73%" y2="89.27%">
            <stop offset="0%" stop-color="#FFF" stop-opacity=".3"/>
            <stop offset="100%" stop-color="#F6F6F6" stop-opacity="0"/>
        </linearGradient>
    </defs>
    <g fill="none" fill-rule="evenodd">
        <path fill="#D8D8D8" fill-opacity="0" d="M0 0h96v96H0z"/>
        <path fill="#EBEBEB" fill-rule="nonzero" d="M32 8h32a4 4 0 0 1 4 4v72a4 4 0 0 1-4 4H32a4 4 0 0 1-4-4V12a4 4 0 0 1 4-4z"/>
        <path fill="#000" fill-rule="nonzero" d="M64 87H32a4 4 0 0 1-4-4v1a4 4 0 0 0 4 4h32a4 4 0 0 0 4-4v-1a4 4 0 0 1-4 4z" opacity=".06"/>
        <path fill="#333" fill-rule="nonzero" d="M31 16h34a1 1 0 0 1 1 1v59a1 1 0 0 1-1 1H31a1 1 0 0 1-1-1V17a1 1 0 0 1 1-1z"/>
        <path fill="url(#a)" fill-rule="nonzero" d="M31 16h34a1 1 0 0 1 1 1v59a1 1 0 0 1-1 1H31a1 1 0 0 1-1-1V17a1 1 0 0 1 1-1z" opacity=".5"/>
        <path fill="#333" fill-rule="nonzero" d="M65 16.5a.5.5 0 0 1 .5.5v59a.5.5 0 0 1-.5.5H31a.5.5 0 0 1-.5-.5V17a.5.5 0 0 1 .5-.5h34zm0-.5H31a1 1 0 0 0-1 1v59a1 1 0 0 0 1 1h34a1 1 0 0 0 1-1V17a1 1 0 0 0-1-1z" opacity=".24"/>
        <path fill="#4A4D4E" fill-rule="nonzero" d="M44.355 12h7.29c.196 0 .355.159.355.355v.29a.355.355 0 0 1-.355.355h-7.29a.355.355 0 0 1-.355-.355v-.29c0-.196.159-.355.355-.355z"/>
        <path fill="#E60000" fill-rule="nonzero" d="M41.355 12h.29c.196 0 .355.159.355.355v.29a.355.355 0 0 1-.355.355h-.29a.355.355 0 0 1-.355-.355v-.29c0-.196.159-.355.355-.355z"/>
        <circle cx="48" cy="82" r="3" fill="#E60000" fill-rule="nonzero"/>
    </g>
</svg>
