<svg xmlns="http://www.w3.org/2000/svg" width="38" height="38" viewBox="0 0 38 38">
    <g fill="none" fill-rule="evenodd">
        <path fill-rule="nonzero" stroke="#00B0AC" stroke-width="1.039" d="M5.194.52A4.674 4.674 0 0 0 .519 5.193v27.612a4.674 4.674 0 0 0 4.675 4.675h27.612a4.674 4.674 0 0 0 4.675-4.675V5.194A4.674 4.674 0 0 0 32.806.519H5.194z"/>
        <path fill="#D8D8D8" fill-opacity="0" d="M7 7h24v24H7z"/>
        <path stroke="#00B0AC" stroke-linejoin="round" d="M24 20.5l3.433 3.304a.625.625 0 0 0 1.067-.441v-8.727a.625.625 0 0 0-1.067-.442L24 17.5V14a1.5 1.5 0 0 0-1.5-1.5H11A1.5 1.5 0 0 0 9.5 14v10a1.5 1.5 0 0 0 1.5 1.5h11.5A1.5 1.5 0 0 0 24 24v-3.5z"/>
    </g>
</svg>
