<?xml version="1.0" encoding="UTF-8"?>
<svg width="200px" height="200px" viewBox="0 0 200 200" version="1.1" xmlns="http://www.w3.org/2000/svg" xmlns:xlink="http://www.w3.org/1999/xlink">
    <!-- Generator: Sketch 58 (84663) - https://sketch.com -->
    <title>image_not_found</title>
    <desc>Created with Sketch.</desc>
    <g id="Pages_Sprint-11" stroke="none" stroke-width="1" fill="none" fill-rule="evenodd">
        <g id="image_not_found" transform="translate(-33.000000, -186.000000)">
            <g transform="translate(33.000000, 186.000000)">
                <rect id="Rectangle" fill="#FFFFFF" x="0" y="0" width="200" height="200"></rect>
                <text id="image-not-found" font-family="VodafoneRg-Regular, Vodafone Rg" font-size="14" font-weight="normal" fill="#000000">
                    <tspan x="54" y="140">image not found</tspan>
                </text>
                <g id="Group" transform="translate(70.000000, 57.000000)">
                    <g id="Brand-2">
                        <g id="number-portability">
                            <rect id="Rectangle" x="0" y="0" width="60" height="60"></rect>
                            <g id="beb8ff17-c184-44e2-947e-37381f4b511d" transform="translate(8.750000, 6.250000)" stroke-linejoin="round" stroke-width="2.00347826">
                                <path d="M12.5,42.53125 L12.5,42.5" id="Path" stroke="#9C2AA0" stroke-linecap="round"></path>
                                <path d="M27.5,37.53125 L32.5,37.53125" id="Path" stroke="#333333" stroke-linecap="round"></path>
                                <rect id="Rectangle" stroke="#333333" stroke-linecap="round" x="0" y="5" width="25" height="42.5" rx="3.00521739"></rect>
                                <path d="M17.5,5 L17.5,3.75 C17.5,1.67893219 19.1789322,0 21.25,0 L38.75,0 C40.8210678,0 42.5,1.67893219 42.5,3.75 L42.5,38.75 C42.5,40.8210678 40.8210678,42.5 38.75,42.5 L25,42.5" id="Path" stroke="#363636"></path>
                            </g>
                        </g>
                    </g>
                    <path d="M56.5,4.5 L3.5,56.5" id="Line" stroke="#979797" stroke-linecap="square"></path>
                </g>
            </g>
        </g>
    </g>
</svg>