<svg xmlns="http://www.w3.org/2000/svg" width="43" height="42" viewBox="0 0 43 42">
    <path fill="#E60000" fill-rule="evenodd" d="M29.443 1.597a8.42 8.42 0 0 0-6.582 8.223c0 .086.02.189.024.275 5.936 1.273 8.93 5.302 8.93 10.62 0 5.974-4.849 10.818-10.778 10.818-5.928 0-11.466-4.984-11.466-12.373 0-9.021 7.674-17.484 18.611-17.752.197-.004.51.003.83.018A21.666 21.666 0 0 0 21.251 0C9.516 0 0 9.275 0 20.716s9.516 20.716 21.252 20.716c11.734 0 21.248-9.275 21.248-20.716 0-8.61-5.389-15.994-13.057-19.119"/>
</svg>
